<svg width="86" height="29" viewBox="0 0 86 29" fill="none" xmlns="http://www.w3.org/2000/svg">
<path fill-rule="evenodd" clip-rule="evenodd" d="M79.5758 11.903H76.8858C76.5312 11.903 76.25 11.6218 76.25 11.2672V1.92576C76.25 1.57117 76.5312 1.28995 76.8858 1.28995H79.5758C82.5103 1.28995 84.8823 3.662 84.8823 6.5965C84.8823 9.531 82.5103 11.903 79.5758 11.903ZM79.5758 2.56156H77.5216V10.6437H79.5758C81.8011 10.6437 83.6107 8.83405 83.6107 6.60873C83.6107 4.3834 81.8011 2.56156 79.5758 2.56156ZM73.7434 11.5607C73.7312 11.5729 73.7312 11.5974 73.719 11.6096C73.719 11.6096 73.719 11.6218 73.7068 11.6218C73.6945 11.6341 73.6945 11.6463 73.6823 11.6585L73.6701 11.6707C73.6579 11.683 73.6579 11.6952 73.6456 11.6952C73.6456 11.7074 73.6334 11.7074 73.6334 11.7196C73.6334 11.7319 73.6212 11.7319 73.609 11.7441C73.5967 11.7563 73.5967 11.7563 73.5845 11.7563C73.56 11.7808 73.5234 11.8052 73.4867 11.8175C73.4867 11.8175 73.4744 11.8175 73.4744 11.8297C73.4378 11.8419 73.4133 11.8664 73.3766 11.8664C73.3644 11.8664 73.3644 11.8664 73.3522 11.8786C73.3155 11.8908 73.291 11.8908 73.2544 11.903C73.2421 11.903 73.2421 11.903 73.2299 11.903C73.2054 11.903 73.181 11.903 73.1688 11.903C73.1565 11.903 73.1443 11.903 73.1321 11.903C73.1199 11.903 73.1199 11.903 73.1076 11.903C73.071 11.903 73.0343 11.8908 73.0098 11.8786H72.9976C72.9609 11.8664 72.9242 11.8541 72.8876 11.8419C72.802 11.793 72.7286 11.7319 72.6675 11.6585L65.9059 3.662V11.2795C65.9059 11.6341 65.6247 11.9153 65.2701 11.9153C64.9155 11.9153 64.6343 11.6341 64.6343 11.2795V1.92576C64.6343 1.86462 64.6465 1.81571 64.6587 1.75458C64.6587 1.74235 64.6709 1.7179 64.6709 1.70567V1.69344C64.6709 1.68121 64.6832 1.66899 64.6832 1.65676C64.6832 1.64453 64.6954 1.64453 64.6954 1.63231C64.6954 1.62008 64.7076 1.60785 64.7076 1.60785C64.7076 1.60785 64.7199 1.59562 64.7199 1.5834C64.7199 1.57117 64.7321 1.57117 64.7321 1.55894C64.7443 1.54672 64.7443 1.53449 64.7565 1.52226L64.7688 1.51004C64.781 1.49781 64.7932 1.48558 64.7932 1.47335L64.8054 1.46113C64.8177 1.4489 64.8299 1.43667 64.8299 1.43667C64.8543 1.41222 64.891 1.38776 64.9155 1.37554C64.9277 1.37554 64.9277 1.36331 64.9399 1.36331C64.9644 1.35108 65.0011 1.33886 65.0378 1.32663C65.05 1.32663 65.05 1.32663 65.0622 1.3144C65.0989 1.30218 65.1233 1.30218 65.16 1.28995C65.1723 1.28995 65.1723 1.28995 65.1845 1.28995C65.2089 1.28995 65.2334 1.28995 65.2456 1.28995C65.2578 1.28995 65.2701 1.28995 65.2823 1.28995H65.2945C65.3312 1.28995 65.3679 1.30218 65.4046 1.3144H65.4168C65.5513 1.35108 65.6736 1.43667 65.7592 1.54672L72.5207 9.54322V1.92576C72.5207 1.57117 72.7897 1.28995 73.1443 1.28995C73.4989 1.28995 73.7801 1.55894 73.7801 1.91353V11.2672C73.8046 11.3773 73.7801 11.4751 73.7434 11.5607ZM61.553 11.5485L60.5015 9.37204H54.7181L53.6666 11.5485C53.5198 11.8664 53.1408 11.9886 52.8351 11.8419C52.8351 11.8419 52.8351 11.8419 52.8229 11.8419C52.505 11.683 52.3827 11.3039 52.5294 10.9982L57.0046 1.73012C57.0535 1.57117 57.1757 1.43667 57.3225 1.36331C57.3958 1.32663 57.4814 1.30218 57.5792 1.30218C57.5915 1.30218 57.5915 1.30218 57.6037 1.30218C57.6159 1.30218 57.6159 1.30218 57.6281 1.30218C57.7137 1.30218 57.7993 1.32663 57.8849 1.36331C58.0316 1.43667 58.1539 1.57117 58.2028 1.73012L62.6779 10.9982C62.8247 11.3161 62.7024 11.6952 62.3845 11.8419C62.0788 12.0009 61.712 11.8664 61.553 11.5485ZM57.6037 3.38078L55.3294 8.11266H59.8902L57.6037 3.38078ZM50.2552 11.903H44.3251C43.9705 11.903 43.6893 11.6218 43.6893 11.2672V1.92576C43.6893 1.57117 43.9583 1.28995 44.3128 1.28995C44.6674 1.28995 44.9487 1.55894 44.9487 1.91353V10.6437H50.243C50.5976 10.6437 50.8788 10.9249 50.8788 11.2795C50.891 11.6218 50.6098 11.903 50.2552 11.903ZM40.1434 6.9144C40.8159 7.41571 41.2438 8.18602 41.2438 8.96855C41.2438 10.5825 39.532 11.903 37.5268 11.903C36.3163 11.903 35.2526 11.4262 34.5923 10.6926C34.3722 10.4236 34.2744 10.0079 34.5312 9.76331C34.7879 9.51877 35.2403 9.59213 35.4849 9.83667C35.9006 10.3258 36.6709 10.6314 37.539 10.6314C38.8473 10.6314 39.9111 9.88558 39.9111 8.96855C39.9111 8.56506 39.6421 8.19825 39.2997 7.86811C38.6028 7.19563 36.8665 6.95108 35.6561 6.18078C34.7879 5.64279 34.3844 4.84803 34.3844 4.00436C34.3844 2.50043 35.974 1.27772 37.9425 1.27772C39.0307 1.27772 39.9722 1.64453 40.6325 2.23143C40.8159 2.41484 40.9259 2.86724 40.7548 3.09956C40.5836 3.29519 40.3268 3.393 40.0823 3.3441C39.9722 3.29519 39.8744 3.22183 39.7766 3.13624C39.3609 2.78165 38.6884 2.54934 37.9425 2.54934C36.6709 2.54934 35.7294 3.2096 35.7294 4.01659C35.7294 4.49344 36.0229 4.98252 36.5731 5.26375C38.1748 6.10742 38.8229 5.93624 40.1434 6.9144ZM31.5355 6.9144C32.208 7.41571 32.636 8.18602 32.636 8.96855C32.636 10.5825 30.9242 11.903 28.9189 11.903C27.7085 11.903 26.6447 11.4262 25.9844 10.6926C25.7643 10.4236 25.6665 10.0079 25.9233 9.76331C26.1801 9.51877 26.6325 9.59213 26.877 9.83667C27.2927 10.3258 28.063 10.6314 28.9312 10.6314C30.2395 10.6314 31.3032 9.88558 31.3032 8.96855C31.3032 8.56506 31.0342 8.19825 30.6919 7.86811C29.9949 7.19563 28.2587 6.95108 27.0482 6.18078C26.1801 5.64279 25.7766 4.84803 25.7766 4.00436C25.7766 2.50043 27.3661 1.27772 29.3347 1.27772C30.4229 1.27772 31.3644 1.64453 32.0246 2.23143C32.208 2.41484 32.3181 2.86724 32.1469 3.09956C31.9757 3.29519 31.7189 3.393 31.4744 3.3441C31.3644 3.29519 31.2665 3.22183 31.1687 3.13624C30.753 2.78165 30.0927 2.54934 29.3347 2.54934C28.063 2.54934 27.1216 3.2096 27.1216 4.01659C27.1216 4.49344 27.415 4.98252 27.9652 5.26375C29.5547 6.10742 30.215 5.93624 31.5355 6.9144ZM18.8927 11.903C15.9582 11.9153 13.5862 9.54322 13.5739 6.60873C13.5617 3.67423 15.9338 1.30218 18.8683 1.28995C21.8028 1.27772 24.1748 3.64977 24.1871 6.58427V6.5965C24.1871 9.531 21.815 11.903 18.8927 11.903ZM18.8927 2.56156C16.6674 2.56156 14.8456 4.35894 14.8456 6.5965C14.8456 8.83405 16.6429 10.6437 18.8805 10.6437C21.1058 10.6437 22.9277 8.84628 22.9277 6.60873V6.5965C22.9154 4.37117 21.1181 2.56156 18.8927 2.56156ZM11.1407 11.3528C10.7862 11.3528 10.5049 11.0716 10.5049 10.717V3.27073L6.94686 7.88034C6.91018 7.9537 6.84904 8.02707 6.77568 8.07597C6.69009 8.13711 6.59227 8.18602 6.49445 8.19825C6.48223 8.19825 6.47 8.19825 6.45777 8.19825C6.40886 8.19825 6.37218 8.19825 6.32327 8.19825C6.31105 8.19825 6.29882 8.19825 6.28659 8.19825C6.17655 8.18602 6.07873 8.13711 6.00537 8.07597C5.93201 8.02707 5.8831 7.9537 5.83419 7.88034L2.28834 3.27073V10.717C2.28834 11.0716 2.00711 11.3528 1.65253 11.3528C1.29794 11.3528 1.01672 11.0716 1.01672 10.717V1.60785C1.02895 1.21659 1.34685 0.898682 1.73812 0.898682C1.98266 0.910909 2.20275 1.03318 2.33724 1.24104L6.39664 6.52314L10.456 1.24104C10.5905 1.03318 10.8106 0.910909 11.0552 0.898682C11.4464 0.898682 11.7643 1.21659 11.7643 1.60785V10.717C11.7766 11.0716 11.4953 11.3528 11.1407 11.3528ZM11.2997 13.4926H1.5058C1.15122 13.4926 0.869993 13.1991 0.88222 12.8445C0.88222 12.5022 1.16344 12.221 1.5058 12.221H11.2997C11.6543 12.221 11.9355 12.5144 11.9233 12.869C11.9233 13.2113 11.6421 13.4926 11.2997 13.4926Z" fill="#13ADBE"/>
<path fill-rule="evenodd" clip-rule="evenodd" d="M1.11816 15.8987H85.1182V28.1013H1.11816V15.8987ZM30.8787 24.1056L30.1084 25.0105C30.8176 25.6952 31.7835 26.0987 32.7983 26.0742C34.4612 26.0742 35.4516 25.0716 35.4516 23.8733C35.4516 22.8096 34.8403 22.2471 33.9599 21.8803L32.9573 21.4646L32.8764 21.4307C32.2972 21.1887 31.7835 20.974 31.7835 20.4131C31.7835 19.8751 32.2481 19.545 32.9451 19.545C33.5687 19.545 34.07 19.7773 34.5468 20.1808L35.2193 19.3493C34.6324 18.7624 33.801 18.4078 32.9328 18.4078C31.4901 18.4078 30.4508 19.3249 30.4508 20.4987C30.4508 21.5869 31.2088 22.1615 31.9425 22.4672L32.9573 22.9074L32.9696 22.9125C33.6356 23.191 34.1066 23.388 34.1066 23.9956C34.1066 24.5703 33.642 24.9493 32.8106 24.9493C32.1136 24.9493 31.4045 24.607 30.8787 24.1056ZM37.3958 18.5546H36.0508L37.518 25.9642H39.1198L40.0124 22.0637C40.1346 21.4891 40.2447 20.9266 40.3425 20.3642H40.3914C40.4892 20.9266 40.5993 21.4891 40.7215 22.0637L41.6386 25.9642H43.2648L44.6831 18.5546H43.4237L42.7757 22.296C42.7067 22.7306 42.6416 23.173 42.576 23.6187C42.5254 23.963 42.4744 24.3095 42.4211 24.6559H42.3722C42.2716 24.153 42.1662 23.6502 42.062 23.1536C42.0015 22.8652 41.9415 22.579 41.8831 22.296L40.9783 18.5546H39.8412L38.9364 22.296C38.8569 22.6873 38.7774 23.0816 38.698 23.476C38.6185 23.8703 38.539 24.2646 38.4595 24.6559H38.4106C38.3495 24.2646 38.2884 23.8703 38.2272 23.476L38.227 23.4748C38.166 23.0809 38.1049 22.6869 38.0438 22.296L37.3958 18.5546ZM47.2997 18.5546H48.8403L51.2491 25.9642H49.8552L49.2787 23.9467H46.7942L46.2115 25.9642H44.8665L47.2997 18.5546ZM48.7303 22.0271L48.9853 22.9196H47.0908L47.3486 22.0271C47.5672 21.3275 47.7565 20.5791 47.9427 19.843L48.0089 19.5816H48.0578C48.0983 19.7324 48.1388 19.884 48.1794 20.036L48.1808 20.0412C48.3602 20.7128 48.5412 21.3902 48.7303 22.0271ZM54.4281 18.5546H52.1049V25.9642H53.4132V23.2375H54.477C56.0665 23.2375 57.2892 22.4917 57.2892 20.841C57.2892 19.1292 56.0665 18.5546 54.4281 18.5546ZM55.9931 20.841C55.9931 21.7458 55.4674 22.186 54.3669 22.186H53.4132V19.6061H54.318C55.4185 19.6061 55.9931 19.924 55.9931 20.841Z" fill="#13ADBE"/>
</svg>
